# xmcd
#
# Track frame offsets:
#	150
#	13079
#	25940
#	37205
#	50026
#	62650
#	75250
#	89539
#	101968
#	115838
#	129203
#	142402
#	153957
#	167189
#	179873
#	192732
#	205121
#	217231
#	229709
#	242270
#	254194
#	266936
#	280097
#	292588
#	305295
#	316092
#	329199
#
# Disc length: 4563 seconds
#
# Revision: 1
# Processed by: cddbd v1.5.1PL0 Copyright (c) Steve Scherf et al.
# Submitted via: audiograbber 1.83.01
#
DISCID=a211d11b
DTITLE=Memphis Slim - The Very Best of Memphis Slim
DYEAR=2004
DGENRE=Blues
TTITLE0=Cheatin' Around
TTITLE1=A Letter Home
TTITLE2=Now I Got The Blues
TTITLE3=Grinder Man Blues
TTITLE4=Don't Ration Love
TTITLE5=Slim's Boogie
TTITLE6=Little Mary
TTITLE7=Mistake In Life
TTITLE8=Darling I Miss You So
TTITLE9=Lend Me Your Love
TTITLE10=Life's Like That
TTITLE11=Nobody Loves Me
TTITLE12=Motherless Child
TTITLE13=Pacemaker Boogie
TTITLE14=Messin' Around
TTITLE15=Midnight Jump
TTITLE16=Harlem Bound
TTITLE17=Kilroy Was Here
TTITLE18=Rocking The House
TTITLE19=Blue And Lonesome
TTITLE20=Country Girl
TTITLE21=Angel Child
TTITLE22=Believe I'll Setttle Down
TTITLE23=Frisco Bay
TTITLE24=Help Me Some
TTITLE25=Throw This Poor Dog A Bone
TTITLE26=Timsy's Whimsy
EXTD=Collectables - Original King Recordings
EXTT0=
EXTT1=
EXTT2=
EXTT3=
EXTT4=
EXTT5=
EXTT6=
EXTT7=
EXTT8=
EXTT9=
EXTT10=
EXTT11=
EXTT12=
EXTT13=
EXTT14=
EXTT15=
EXTT16=
EXTT17=
EXTT18=
EXTT19=
EXTT20=
EXTT21=
EXTT22=
EXTT23=
EXTT24=
EXTT25=
EXTT26=
PLAYORDER=
